<svg width="30" height="32" viewBox="0 0 30 32" fill="none" xmlns="http://www.w3.org/2000/svg">
<path d="M18.9793 20.9048L19.0712 27.1541C19.0858 28.1485 18.6949 29.1082 17.9845 29.822C17.2741 30.5358 16.3023 30.9452 15.283 30.9602L5.03413 31.111C4.01481 31.1259 3.03143 30.7453 2.30032 30.0527C1.56922 29.3601 1.15027 28.4123 1.13564 27.4179L0.804736 4.92032C0.790109 3.92586 1.181 2.96618 1.89143 2.2524C2.60185 1.53861 3.5736 1.12919 4.59292 1.11419L14.8418 0.963449C15.8611 0.948457 16.8445 1.32912 17.5756 2.02171C18.3067 2.71429 18.7257 3.66206 18.7403 4.65651L18.8322 10.9058M12.5737 20.999L7.37575 16.0749M7.37575 16.0749L12.4267 11.0001M7.37575 16.0749L29.1546 15.7546" stroke="black" stroke-width="1.5" stroke-linecap="round" stroke-linejoin="round"/>
</svg>
